<?xml version="1.0" encoding="UTF-8"?>
<svg id="Layer_1" data-name="Layer 1" xmlns="http://www.w3.org/2000/svg" viewBox="0 0 236.25 236.25">
  <defs>
    <style>
      .cls-1 {
        fill: #fbf6ef;
      }

      .cls-2 {
        fill: #faf5ec;
      }

      .cls-3 {
        fill: #fcf7f0;
      }

      .cls-4 {
        fill: #f8f0e8;
      }

      .cls-5 {
        fill: #fee785;
      }

      .cls-6 {
        fill: #fbf7f0;
      }

      .cls-7 {
        fill: #fce480;
      }

      .cls-8 {
        fill: #f59578;
      }

      .cls-9 {
        fill: #9d3c0c;
      }

      .cls-10 {
        fill: #fbf6ee;
      }

      .cls-11 {
        fill: #fbf5ee;
      }

      .cls-12 {
        fill: #fee888;
      }

      .cls-13 {
        fill: #fee886;
      }

      .cls-14 {
        fill: #fee786;
      }

      .cls-15 {
        fill: #9d3909;
      }

      .cls-16 {
        fill: #fde585;
      }
    </style>
  </defs>
  <path class="cls-8" d="M172.17,20.7c1.13.84,2.74.62,3.33,1.18.56.53,6.56,12.81,6.73,13.82s-.36,2.06-.19,3.18c2.67,17.35,5.55,34.75,3.37,52.32,11.76-1.68,22.75-3.34,31.4,6.52.61,3.99-.06,8-.04,11.76,0,1.21.82,2.5.79,3.78-.05,1.74-.59,9.21-.91,10.31-.77,2.64-8.31,11.16-11.8,11.01,1.66,2.95,1.41,4.69,1.51,7.89.28,8.8-1.1,19.15-6.57,26.32-1.87,2.45-6.53,4.42-6.94,7.32-.49,3.47,2.81,11.82,3.04,16.38.49,9.49-5.68,28.06-15.73,30.74-1.74.47-3.53,1.01-5.22,1.44-8.04,2.03-4.66.77-10.89-.33-2.06-.37-4.09.29-6.35-.38-3.16-.93-8.53-5.69-10.32-8.34-1.93-2.86-3.39-8.24-6.45-10.08-.21-.13-4.67-.82-4.88-.69-.45.3-1.77,8.47-2.69,10.41-1.66,3.5-9.77,12.21-13.34,13.58-6.99,2.67-23.81,2.59-30.08-1.8-5.36-3.75-10.65-11.58-14.45-16.79-2.74-3.75-8.29-21.36-9.71-22.23-1.93-1.17-4.84.41-7.11.37-9.38-.16-18.61-3.22-23.13-12-3.22-6.25-2.49-14.49,2.05-19.9,3.06-3.65,8.31-3.28,3.06-9.13-6.79-7.55-14.75-13.68-16.34-24.63-2.11-14.58-1.16-36.16-.4-51.32.26-5.27,2.04-11.58,2.26-16.49.11-2.5-1-4.36-.46-7.08.59-2.96,6.94-19.28,8.87-20.69.94-.69,2.95-.55,4.24-1.37,1.4-.89,2.24-3.22,4.26-4.71,9.05-6.62,23.52-9.15,34.15-10.12,6.33-.58,17.84-2.95,23.36-2.66,1.56.08,1.99,2.14,4.41,2.27,5.05.26,12.83.64,17.87.59,7.66-.09,7.74.44,15.07,1.54,15.9,2.39,19.34-3.05,34.2,8.03ZM162.72,26.46c-2.76-.58-6.99-3.33-9.24-3.88-5.02-1.23-18.61-4.54-23.1-4.55s-10.29,3-16.26,2.65-11.39-5.41-17.2-3.97c-1.42.35-2.2,1.44-3.32,1.77-8.41,2.42-11.2,1.9-19.93.93-1.33-.15-2.63-1.5-3.64-1.32-3.01.53-9.48,5.09-12.27,6.4-2.04.96-7.31,2.04-8.25,2.59-.42.24-3.27,5.91-5.9,6.07-2.08,4.64-9.45,12.09-10.51,16.77-.68,2.99,0,7.58.09,10.9.28,11.21,1.59,23.72.65,34.7s-3,22.59,2.15,32.6c.91,1.77,8.45,11.64,9.87,12.93,2.44,2.2,11.27,4.3,11.71,4.75,1.26,1.33-2.78,2.21-3.76,3.34-1.09,1.27-1.64,3.99-2.7,5.52-3.43,4.95-9.73,9.66-7.41,16.6.86,2.59,2.87,2.08,3.93,3.17,1.37,1.42,3.24,5.51,5.1,5.79.55.08,10.19-1.44,11.04-1.7,1.19-.37,7.3-5.74,8.01-5.07,1.43,4.73,2.36,10.39,4.11,14.96,4.37,11.38,11.58,24.44,21.24,31.84,1.36,1.04,1.61,3.16,3.62,3.85,2.82.97,7.89.92,10.68-.18.65-.26,8.95-5.95,9.31-6.39.96-1.15,2.39-8.35,2.54-10.16.3-3.7-.94-6.81-.72-9.64.32-4.16,2.16-1.72,4.18-1.86,1.52-.11,5.38-.48,6.59-.77.67-.16.22-1.54,1.58-1.54,9.39.02,12.1,5.75,17.72,11.52.53.54,1.81.59,2.5,1.27,1.11,1.09,1.42,3.58,3.01,5.21,2.48,2.56,9.1,4.81,12.63,4.44,2.83-.3,11.97-3.84,13.22-6.25,3.81-7.38,2.21-23.42-.29-31.23-.69-2.17-2.22-4.02-3.51-5.83,3.5.28,6.13-1.92,8.26-4.31.45-.5.34-1.81.88-2.25,1.11-.91,3.4.02,4.93-2.18,3.54-5.1,3.04-13.42,3.13-19.29.04-2.46,1.67-3.84-.1-6.68-.78-1.24-3.49-1.61-2.79-4.39.64-2.54,4.05-2.16,5.27-2.84,4.27-2.41,6.74-6.7,10.15-9.81-.18-6.87-1.54-13.49-2.8-20.23-4.91-3.8-11.47-2.82-17.25-1.7-4.51.88-7.4,2.39-11.17,4.9,1.67-4.66-2.17-6.72-2.84-9.5-.96-3.99.08-7.57-.12-11.02-.18-3.01-1.96-6.02-2.28-9-.77-7.09,1.43-16.15.75-22.36-.33-2.94-4.94-8.38-5.92-10.75-1.59-3.86-2.08-12.73-5.55-14.82Z"/>
  <g>
    <path class="cls-15" d="M162.72,26.46c3.47,2.1,3.96,10.96,5.55,14.82.97,2.37,5.59,7.81,5.92,10.75.69,6.21-1.51,15.27-.75,22.36.32,2.98,2.11,5.99,2.28,9,.2,3.45-.84,7.03.12,11.02.67,2.79,4.51,4.84,2.84,9.5,3.76-2.51,6.65-4.02,11.17-4.9,5.78-1.12,12.34-2.1,17.25,1.7,1.26,6.74,2.62,13.36,2.8,20.23-3.41,3.11-5.88,7.4-10.15,9.81-1.22.69-4.63.31-5.27,2.84-.7,2.79,2.02,3.15,2.79,4.39,1.77,2.84.14,4.22.1,6.68-.09,5.87.4,14.19-3.13,19.29-1.52,2.2-3.82,1.27-4.93,2.18-.54.44-.43,1.75-.88,2.25-2.13,2.39-4.76,4.59-8.26,4.31,1.29,1.81,2.82,3.66,3.51,5.83,2.49,7.81,4.1,23.86.29,31.23-1.25,2.41-10.4,5.95-13.22,6.25-3.53.37-10.15-1.88-12.63-4.44-1.59-1.63-1.9-4.12-3.01-5.21-.69-.68-1.98-.73-2.5-1.27-5.61-5.77-8.32-11.5-17.72-11.52-1.35,0-.91,1.38-1.58,1.54-1.22.29-5.07.66-6.59.77-2.02.15-3.86-2.3-4.18,1.86-.22,2.83,1.02,5.94.72,9.64-.15,1.81-1.58,9.02-2.54,10.16-.36.43-8.66,6.13-9.31,6.39-2.79,1.1-7.86,1.15-10.68.18-2.01-.69-2.26-2.81-3.62-3.85-9.66-7.41-16.87-20.47-21.24-31.84-1.75-4.57-2.68-10.23-4.11-14.96-.71-.67-6.82,4.7-8.01,5.07-.84.26-10.48,1.78-11.04,1.7-1.86-.28-3.72-4.37-5.1-5.79-1.06-1.1-3.06-.58-3.93-3.17-2.31-6.93,3.98-11.64,7.41-16.6,1.06-1.53,1.61-4.24,2.7-5.52.98-1.13,5.02-2.01,3.76-3.34-.43-.46-9.27-2.55-11.71-4.75-1.43-1.29-8.97-11.16-9.87-12.93-5.14-10.01-3.05-22.06-2.15-32.6s-.37-23.48-.65-34.7c-.08-3.32-.78-7.91-.09-10.9,1.07-4.68,8.43-12.13,10.51-16.77,2.63-.16,5.48-5.83,5.9-6.07.95-.54,6.21-1.63,8.25-2.59,2.79-1.31,9.26-5.87,12.27-6.4,1.01-.18,2.31,1.17,3.64,1.32,8.73.97,11.51,1.49,19.93-.93,1.12-.32,1.89-1.41,3.32-1.77,5.81-1.44,11.43,3.62,17.2,3.97s11.67-2.66,16.26-2.65,18.08,3.32,23.1,4.55c2.24.55,6.47,3.31,9.24,3.88ZM160.74,40.37c-1.17-2.9-1.7-3.22-3.25-5.31-.67-.9-.69-2.16-1.56-2.96-1.02-.94-6.06-1.98-7.63-2.13-4.29-.41-10.69.73-14.74.43-3.09-.24-7.19-1.77-10.58-1.98-10.58-.64-19.53.52-29.86-.8-7.68-.98-14.78,2.11-22.1,3.48-5.49,1.03-4.58,1.41-9.18,3.81-3.2,1.67-8.83,3-11.67,5.16-1.02.78-1.3,2.36-2.34,2.92-.64.35-1.73-.26-2.24.04-3.28,1.92-3.62,9.01-3.72,12.29-.07,2.21-.11,4.52,0,6.73.13,2.78.66,6.08.79,8.93.77.78,14.75-.55,17.5-.5,3.35.06,11.44.3,14.26,1.23,2.26.75,5.67,5.42,5.65,7.93-.01,1.17-3.06,4.69-4.14,5.62s-3.2,2.8-4.48,2.87c-1.49.08-9.95-1.64-10.96-2.46-3.66-2.99-.96-8.95-1.42-9.41-5.97-.54-11.32,1.49-17.19,0-.48,5.12-1.68,10.17-1.52,15.36.06,1.88.8,8.29,1.38,9.77s2.08,1.17,2.4,2.88c1.03,5.52-1.27,13.71-.02,19.84.85,4.14,1.83,3.46,3.74,5.98.62.82,1.2,4.03,2.69,4.34.67.14,1.71-.67,2.72-.44,5.19,1.21,10.95,4.9,16.91,5.38,4.46.36,9.69-2.06,12.47-1.9,1.41.08,1.01,1.57,1.56,1.62.97.09,2.15-.76,3.48-.64,1.95.17,3.32,2.07,5.36,2.13,3.34.1,8.78-2.92,12.78-3.05,3.51-.11,9.24,1.5,13.36,1.39,7.72-.21,15.58-3.94,23.61-2.86v-3.74c-2.2,1.12-5.13,2.41-7.66,2.11-4.68-.57-16-3.7-19.8-6.43-2.63-1.89-4.38-5.15-3.95-8.39-16.37,4.48-33.13,13.2-50.09,5.98-1.21-.52-5.14-2.85-5.98-3.74-4.03-4.23-1.66-5.12-3-10.03,8.73-4.28,6.6,1.83,9.59,6.8,4.06,6.76,10.54,3.52,17.09,2.62,8.54-1.18,13.67-1.84,22.06-5.44,5.68-2.44,12.17-4.85,18.1-7.49,5.49-2.44,15.69-10.2,21.6-7.22l8.76,5.81c1.28-1.54,1.81-5.48,2.46-6.52.38-.62,9.94-9.3,10.73-9.83.99-.67,5.51-1.62,5.5-2.7,0-.13-1.28-1.05-1.46-2.27-.53-3.74.47-8.07.28-11.66-.32-6.06-2.69-21.63-4.04-27.57-.08-.34-1.93-5.2-2.24-5.98ZM72.44,81.4c.13-.11.8-2.94.79-3.34-.02-2.54-7.75-3.34-8.84.93-.37,1.44.11.8.85,1.17,1.34.67,6.21,2.09,7.19,1.25ZM201.11,118.87c1.39-3.46,2.06-4.98.99-8.84s-2.91-3.15-3.79-4.06c-.56-.58.42-2.81-2.68-2.58-1.71.13-10.22,7.07-12.08,8.76-2.51,2.28-12.22,15.22-16,11.88-1.68-3.3.55-4.84,1.18-7.26,1.74-6.62,3.48-12.7,1.73-19.58-9.37.5-14.35,4.96-16.2,13.96-.17.85.59,2.06.51,2.49-.12.64-.61,1.38-.75,2.24-.5,3.14-3.33,18.8-2.29,20.39.49.74,1.71.91,2.46,2.23.79,1.39,1.14,3.45,1.33,5.04,2.94-2.13,3.16-6.41,4.59-9.23,5.52-10.95,16.32-3,24.86-1.99,2.5-4.33,7.81-4.7,11.66-7.46,2.85-2.04,3.21-2.8,4.49-5.98ZM143.35,109.35c-.17-.2-4.38-2.44-4.66-2.44-1.16.01-6.13,2.74-7.86,3,1.22,1.89,1.84,4.31,2.99,6.19.42.68,1.53.3,1.51.9s-2.46,4.03-2.78,4.12c-4.07,1.15-5.79-8.55-8.17-8.91-.93-.14-7.02,3.76-6.92,4.67,1.81,2.19,4.24,8.8,6.65,9.82,1.49.63,2.8.13,4.05.43,2.13.52,1.84,1.77,4.81.99,1.56-.41,1.48-1.4,2.2-1.71,1.48-.63,2.98-.52,4.81-1.6,3.97-2.35,6.53-11.7,3.36-15.48ZM188.4,141.3c-.53-.84-1.3-3.6-2-3.77-.9-.21-7.24-.87-8.1-.79-.54.05-7.44,1.58-8.02,1.76-9.99,3.08-14.94,11.27-6.55,19.62,2.62,2.61,8.82,3.49,12.18,2.63.69-.18,3.85-5.5,7.3-1.92,1.34,1.39.77,3.59,2.19,4.15-.7-4.27,5.22-2.76,6.62-4.97,2.01-3.15.33-7.58-.63-10.73-1.06-3.47-1.11-3.01-2.99-5.98ZM148.78,151.77c8.95-13.77-16.04-10.62-13.34-1.27.54,1.88,2.51,1.65,2.88,2.02.06.06-.13.89.54,1.5.84.76,5.53,4.36,6.19,4.48-.58,3.46,2.44,2.71,4.05,3.8,1.98,1.35,2.02,5.17,1.93,7.41-2.61-1.52-4.82.75-6.35.73-.42,0-7.46-2.78-7.7-3.12-.36-.53-.06-1.91-.58-2.75-1.43-2.34-4.35-4.25-5.37-6.62-1.52-3.55-1.42-9.86-.93-13.64-1.05-1.49-27.35,1.98-31.85,2.15-4.97.19-7.9-1.37-13.77.44-1.08.33-2.06,1.69-2.73,1.78-.5.07-7.84-2.06-9.49-2.09-6.11-.11-3.57,3.02-5.16,5-.75.93-12.43,6.14-12.92,6.88-.66.99-.42,4.57-.34,6.02.05,1.02.64,2.75.75,4.49.03.51-1.54,1.71.3,3.04,4.79,3.46,16-8.45,20.14-5.34.4.3,4.52,7.34,5.14,8.49,1.91,3.51,3.8,8.79,6.23,12.46.56.84,2.23,1.05,2.47,1.98.32,1.26-2.02,5.58-1.39,9.28.23,1.38.99,4.86,1.71,5.79.47.61,1.72.62,2.03.93.47.49.52,1.86,1.52,2.57,1.12.79,2.82.68,3.91,1.34,5.52,3.3,11.74,7.11,18.41,5.73l.67-9.1c-1.14-5.12-5.96-12.28-1.3-16.57s12.82-.32,17.46-.49c3.03-.11,8.56-2.22,11.41-2.7,1.45-.24,3.14,1.18,4.82.88,1.15-.2,2.99-2.08,3.99-1.84s1.02,2.28,1.6,2.91c4.67,5.05,3.34,5.65,6.27,10.17.49.75,5.76,6.69,6.36,7.1,4.99,3.38,8.03-.6,12.36-2.73.35-1.01.79-7.8.5-8.75-.37-1.19-1.35-3.02-2.01-4.97s-.62-4.03-2.99-5.23c1.29-3.71-4-10.28-1.13-13.47.95-1.06,2.74-.1,2.62-1.47-2.54-.66-5.24-.06-7.77-.82-1.49-.44-8.62-3.17-9.7-3.78-1.51-.85-3.26-3.35-4.09-4.88-1.15-2.09-.28-5.27-3.85-4.74-.04-.16-1.35-2.9-1.5-2.99Z"/>
    <path class="cls-6" d="M53.83,164.48c-.08-1.45-.32-5.03.34-6.02.5-.74,12.18-5.96,12.92-6.88,1.59-1.97-.95-5.11,5.16-5,1.65.03,8.99,2.16,9.49,2.09.67-.09,1.65-1.45,2.73-1.78,5.87-1.81,8.79-.25,13.77-.44,4.51-.17,30.81-3.64,31.85-2.15-.49,3.78-.59,10.09.93,13.64,1.02,2.37,3.94,4.27,5.37,6.62.51.84.22,2.22.58,2.75.23.34,7.28,3.12,7.7,3.12,1.54.03,3.74-2.24,6.35-.73.09-2.24.05-6.06-1.93-7.41-1.61-1.09-4.63-.34-4.05-3.8,1.57.28,3.55-.63,5.15-.83.22-.26.2-2.37.08-2.9,3.57-.52,2.71,2.65,3.85,4.74.84,1.53,2.58,4.03,4.09,4.88,1.08.61,8.21,3.33,9.7,3.78,2.53.75,5.23.15,7.77.82.11,1.37-1.67.42-2.62,1.47-2.86,3.19,2.42,9.76,1.13,13.47-2.1-1.07-8.42-.61-8.97,1.89-1.56,6.98,8.16,4.08,11.96,3.35.66,1.95,1.64,3.78,2.01,4.97.29.95-.15,7.75-.5,8.75-4.33,2.13-7.37,6.11-12.36,2.73-.6-.41-5.87-6.34-6.36-7.1-2.93-4.52-1.61-5.13-6.27-10.17-.58-.63-.62-2.68-1.6-2.91s-2.84,1.63-3.99,1.84c-1.67.3-3.37-1.12-4.82-.88-2.84.47-8.37,2.59-11.41,2.7-4.64.16-12.94-3.68-17.46.49s.16,11.45,1.3,16.57l-.67,9.1c-6.67,1.38-12.89-2.43-18.41-5.73-1.09-.65-2.79-.55-3.91-1.34-1.01-.71-1.05-2.08-1.52-2.57,5.69-.36,13.84-.54,12.71-8.22-.96-.96-14.04,2.9-16.45,1.49-.63-3.7,1.71-8.02,1.39-9.28-.24-.93-1.91-1.13-2.47-1.98-2.43-3.67-4.32-8.95-6.23-12.46-.62-1.15-4.75-8.19-5.14-8.49-4.14-3.11-15.34,8.8-20.14,5.34-1.85-1.33-.27-2.54-.3-3.04,10.5.5,7.8-5.06-.75-4.49ZM94.09,151.13c-1.5-.91-16.77,2.13-19.6,2.1-.89.36-.57,3.6-.44,3.74.28.29,6.81,1.59,7.81,1.6,1.92,0,10.91-1.17,12.58-1.68,2.36-.73.14-5.45-.36-5.75ZM132.33,168.22c-4.27-1.64-8.8.35-13.18.63-1.83.12-6.66-1.04-7.79-.31-1.46.95-.16,5.58,1.82,5.62,1.75.03,14.65-1.84,16.36-2.37.95-.29,3.42-2.65,2.77-3.57Z"/>
    <path class="cls-10" d="M154.76,113.64c.08-.43-.68-1.64-.51-2.49,1.85-9,6.83-13.46,16.2-13.96,1.75,6.88.01,12.96-1.73,19.58-.64,2.43-2.87,3.96-1.18,7.26,3.79,3.34,13.5-9.6,16-11.88,1.86-1.68,10.37-8.63,12.08-8.76,3.1-.23,2.12,2,2.68,2.58.88.91,2.67.02,3.79,4.06s.4,5.38-.99,8.84l-12.65-1.43c-2.52,7.01,2.1,8.03,8.16,7.41-3.85,2.76-9.16,3.14-11.66,7.46-8.54-1-19.34-8.96-24.86,1.99-1.42,2.82-1.65,7.1-4.59,9.23-.19-1.6-.54-3.66-1.33-5.04s-1.98-1.48-2.46-2.23c-1.04-1.59,1.79-17.25,2.29-20.39,1.86,3.71,5.29,2.91,8.85,1.75,4.19-1.37,1.93-3.47-1.03-3.95-2.22-.36-4.79.15-7.07-.04Z"/>
    <path class="cls-11" d="M61.31,125.6c16.96,7.22,33.72-1.5,50.09-5.98-.43,3.23,1.32,6.5,3.95,8.39,3.8,2.73,15.11,5.86,19.8,6.43,2.53.31,5.46-.99,7.65-2.11v3.74c-8.01-1.08-15.88,2.65-23.6,2.86-4.12.11-9.86-1.5-13.36-1.39-4.01.13-9.44,3.15-12.78,3.05-2.04-.06-3.41-1.96-5.36-2.13-1.33-.12-2.51.73-3.48.64-.55-.05-.14-1.54-1.56-1.62-2.78-.16-8.01,2.26-12.47,1.9-5.96-.48-11.72-4.17-16.91-5.38-1.01-.24-2.05.58-2.72.44-1.49-.31-2.06-3.52-2.69-4.34,4.54-.57,10.86.08,13.46-4.49Z"/>
    <path class="cls-1" d="M191.39,147.28c.96,3.15,2.64,7.57.63,10.73-1.4,2.2-7.32.69-6.62,4.97-1.42-.56-.85-2.76-2.19-4.15-3.45-3.58-6.62,1.74-7.3,1.92-3.36.87-9.57-.02-12.18-2.63-8.39-8.36-3.44-16.55,6.55-19.62.58-.18,7.48-1.71,8.02-1.76.85-.08,7.2.58,8.1.79.7.16,1.47,2.92,2,3.77-4.67.1-9.14-.73-13.43,1.56.54,8.33,10.81,3.18,16.42,4.43Z"/>
    <path class="cls-7" d="M143.35,109.35c3.17,3.77.61,13.13-3.36,15.48-1.84,1.09-3.33.97-4.81,1.6-.72.3-.64,1.3-2.2,1.71-2.97.77-2.67-.48-4.81-.99-1.25-.3-2.56.2-4.05-.43-2.41-1.02-4.84-7.63-6.65-9.82-.11-.91,5.99-4.81,6.92-4.67,2.39.36,4.1,10.07,8.17,8.91.32-.09,2.76-3.51,2.78-4.12s-1.09-.22-1.51-.9c-1.15-1.88-1.77-4.3-2.99-6.19,1.73-.26,6.7-2.99,7.86-3,.28,0,4.49,2.23,4.66,2.44Z"/>
    <path class="cls-2" d="M138.31,152.52c-.37-.37-2.33-.14-2.88-2.02-2.69-9.34,22.29-12.5,13.34,1.27-1.51-.96-8.22,1.28-10.47.75Z"/>
    <path class="cls-14" d="M87.47,198.87c2.41,1.4,15.49-2.46,16.45-1.49,1.13,7.68-7.02,7.86-12.71,8.22-.3-.32-1.56-.33-2.03-.93-.72-.93-1.48-4.42-1.71-5.79Z"/>
    <path class="cls-16" d="M55.32,121.86c.84.88,4.77,3.22,5.98,3.74-2.6,4.57-8.92,3.91-13.46,4.49-1.9-2.52-2.89-1.84-3.74-5.98,3.41-.14,8.85.55,11.21-2.24Z"/>
    <path class="cls-14" d="M188.4,141.3c1.88,2.97,1.93,2.51,2.99,5.98-5.62-1.24-15.88,3.9-16.42-4.43,4.29-2.28,8.76-1.46,13.43-1.56Z"/>
    <path class="cls-16" d="M201.11,118.87c-1.28,3.18-1.64,3.94-4.49,5.98-6.06.62-10.68-.4-8.16-7.41l12.65,1.43Z"/>
    <path class="cls-14" d="M174.2,183.92c2.37,1.21,2.35,3.33,2.99,5.23-3.8.73-13.52,3.63-11.96-3.35.56-2.49,6.87-2.95,8.97-1.89Z"/>
    <path class="cls-16" d="M148.78,151.77c.14.09,1.46,2.83,1.5,2.99.12.53.13,2.65-.08,2.9-1.6.21-3.57,1.12-5.15.83-.66-.12-5.35-3.72-6.19-4.48-.67-.61-.48-1.44-.54-1.5,2.24.53,8.96-1.71,10.47-.75Z"/>
    <path class="cls-14" d="M154.76,113.64c2.28.19,4.85-.32,7.07.04,2.96.48,5.23,2.58,1.03,3.95-3.56,1.16-6.99,1.96-8.85-1.75.14-.86.62-1.61.75-2.24Z"/>
    <path class="cls-16" d="M53.83,164.48c8.55-.57,11.25,4.99.75,4.49-.11-1.74-.69-3.47-.75-4.49Z"/>
    <path class="cls-13" d="M94.09,151.13c.5.3,2.72,5.02.36,5.75-1.67.51-10.66,1.69-12.58,1.68-1,0-7.54-1.31-7.81-1.6-.13-.13-.45-3.38.44-3.74,2.82.03,18.1-3,19.6-2.1Z"/>
    <path class="cls-12" d="M132.33,168.22c.65.92-1.82,3.28-2.77,3.57-1.71.53-14.61,2.4-16.36,2.37-1.98-.03-3.28-4.66-1.82-5.62,1.12-.73,5.95.42,7.79.31,4.37-.28,8.91-2.27,13.18-.63Z"/>
    <g>
      <path class="cls-3" d="M41.87,55.32c.1-3.27.44-10.36,3.72-12.29.51-.3,1.6.31,2.24-.04,1.04-.56,1.32-2.14,2.34-2.92,2.84-2.16,8.47-3.49,11.67-5.16,4.6-2.4,3.69-2.78,9.18-3.81,7.31-1.38,14.42-4.46,22.1-3.48,10.33,1.31,19.28.16,29.86.8,3.39.21,7.49,1.74,10.58,1.98,4.05.31,10.45-.84,14.74-.43,1.58.15,6.61,1.19,7.63,2.13.87.8.89,2.06,1.56,2.96,1.55,2.09,2.08,2.41,3.25,5.31-3.43,1.12-9.23.72-12.23,1.48-.55.14-.55,1.01-.49,1.5-3.45-4.49-7.83,1.92-5.97,3.75.2.2,4.86.6,5.61.6,5,0,10.41-2.44,15.32-1.34,1.35,5.93,3.72,21.51,4.04,27.57.19,3.6-.81,7.92-.28,11.66.17,1.22,1.45,2.13,1.46,2.27.01,1.08-4.51,2.03-5.5,2.7-.79.53-10.34,9.21-10.73,9.83-.65,1.05-1.18,4.99-2.46,6.52l-8.76-5.81c-5.91-2.98-16.11,4.78-21.6,7.22-5.93,2.64-12.41,5.05-18.1,7.49-8.39,3.6-13.51,4.27-22.06,5.44-6.54.9-13.03,4.14-17.09-2.62-2.99-4.98-.86-11.08-9.59-6.8,1.33,4.91-1.04,5.8,3,10.03-2.37,2.79-7.8,2.1-11.21,2.24-1.26-6.12,1.04-14.32.02-19.84-.32-1.72-1.81-1.38-2.4-2.88s-1.33-7.88-1.38-9.77c-.15-5.2,1.04-10.25,1.52-15.36,5.87,1.5,11.23-.53,17.19,0,.46.46-2.24,6.43,1.42,9.41,1.01.82,9.47,2.54,10.96,2.46,1.28-.07,3.44-1.97,4.48-2.87s4.13-4.45,4.14-5.62c.02-2.51-3.39-7.18-5.65-7.93-2.81-.94-10.9-1.18-14.26-1.23-2.75-.05-16.73,1.28-17.5.5-.13-2.85-.66-6.15-.79-8.93,5.01-.07,12.1.71,16.85,0,1.08-.16,1.21.44,1.12-1.14-.53-9.36-12.03-4.01-17.97-5.6ZM160.62,79.88c1.09-1.72-1.01-9.74-2.95-11.38-3.82-3.23-6.19-.56-10.01-.47-6.35.15-12.93-.96-19.39.05-2.82.44-4.3,2.37-4.16,5.18,2.44,1.01,15.71-1.16,16.39-.69.86.6,1.02,10.45,5.71,11.18,2.15.33,13.46-2.36,14.41-3.87ZM110.27,92.71c-2.53-.78-15.57,0-19.44,0-2.07,0-2.27,4.41-.04,6.06,2.53,1.86,16.6-.83,20.6.67-.12-1.6.64-6.19-1.12-6.73Z"/>
      <path class="cls-5" d="M41.87,55.32c5.94,1.59,17.44-3.76,17.97,5.6.09,1.57-.04.98-1.12,1.14-4.75.7-11.83-.07-16.85,0-.11-2.2-.07-4.52,0-6.73Z"/>
      <path class="cls-14" d="M160.74,40.37c.31.78,2.17,5.65,2.24,5.98-4.91-1.1-10.33,1.35-15.32,1.34-.75,0-5.41-.4-5.61-.6-1.86-1.82,2.52-8.23,5.97-3.75-.05-.49-.06-1.36.49-1.5,3-.77,8.8-.36,12.23-1.48Z"/>
      <path class="cls-2" d="M72.44,81.4c-.98.84-5.86-.58-7.19-1.25-.74-.37-1.22.27-.85-1.17,1.09-4.27,8.82-3.47,8.84-.93,0,.41-.66,3.23-.79,3.34Z"/>
      <path class="cls-9" d="M160.62,79.88c-.95,1.5-12.26,4.2-14.41,3.87-4.69-.72-4.85-10.58-5.71-11.18-.67-.47-13.94,1.71-16.39.69-.14-2.81,1.34-4.74,4.16-5.18,6.46-1,13.04.1,19.39-.05,3.82-.09,6.18-2.76,10.01.47,1.95,1.64,4.04,9.66,2.95,11.38ZM145.93,76.13c1.37,2.39,9.34,3.55,8.83-1.72-.42-1.56-11.83-3.51-8.83,1.72Z"/>
      <path class="cls-13" d="M110.27,92.71c1.76.54,1.01,5.13,1.12,6.73-4-1.5-18.07,1.18-20.6-.67-2.23-1.64-2.03-6.06.04-6.06,3.87,0,16.91-.78,19.44,0Z"/>
      <path class="cls-4" d="M145.93,76.13c-3-5.24,8.41-3.28,8.83-1.72.52,5.27-7.45,4.12-8.83,1.72Z"/>
    </g>
  </g>
</svg>